<mxfile host="app.diagrams.net" modified="2024-01-11T15:02:16.658Z" agent="Mozilla/5.0 (X11; Linux x86_64; rv:121.0) Gecko/20100101 Firefox/121.0" etag="zsf_PjPqZyF2u8sRzlTm" version="22.1.18" type="device">
  <diagram name="Page-1" id="GwrviDIOhBFQteOkZUC9">
    <mxGraphModel dx="5615" dy="3985" grid="1" gridSize="10" guides="0" tooltips="1" connect="1" arrows="1" fold="1" page="0" pageScale="1" pageWidth="850" pageHeight="1100" math="1" shadow="0">
      <root>
        <mxCell id="0" />
        <mxCell id="1" parent="0" />
        <mxCell id="6nB1oudf6yaDWqm7sy5U-1" value="𝑓 : C → C определена в 𝐵_𝛿 (𝑧0 ) точки&lt;div&gt;𝑧0 ∈ C. Функция 𝑓 - &lt;b&gt;дифференцируема&lt;/b&gt; в точке 𝑧0 , если в 𝐵˚_𝛿 (𝑧0) существует 𝐴 ∈ C такое, что для любого Δ𝑧→0&lt;/div&gt;&lt;div&gt;&lt;br&gt;&lt;/div&gt;&lt;div&gt;выполнено &lt;b&gt;𝑓(𝑧0 + ∆𝑧) − 𝑓(𝑧0 ) = 𝐴∆𝑧 + |∆𝑧|𝛼(∆𝑧).&lt;/b&gt;&lt;br&gt;&lt;/div&gt;" style="rounded=0;whiteSpace=wrap;html=1;fillColor=#fff2cc;strokeColor=#d6b656;" parent="1" vertex="1">
          <mxGeometry x="-349" y="-150" width="399" height="100" as="geometry" />
        </mxCell>
        <mxCell id="6nB1oudf6yaDWqm7sy5U-4" value="&lt;div&gt;&lt;b&gt;&lt;i&gt;Условия Коши-Римана&lt;/i&gt;&lt;/b&gt;&lt;br&gt;&lt;/div&gt;&lt;div&gt;𝑓 дифференцируема в точке 𝑧0 = 𝑥0 + 𝑖𝑦0 ∈ C&amp;nbsp;&lt;/div&gt;&lt;div&gt;⇔&lt;br&gt;&lt;/div&gt;&lt;div&gt;𝑢, 𝑣 дифференцируемы в точке (𝑥0 , 𝑦0 ) и&lt;/div&gt;𝑢′𝑥 (𝑥0 , 𝑦0 ) = 𝑣𝑦′ (𝑥0 , 𝑦0 )&lt;br&gt;𝑢′𝑦 (𝑥0 , 𝑦0 ) = −𝑣𝑥′ (𝑥0 , 𝑦0 )" style="rounded=1;whiteSpace=wrap;html=1;fillColor=#dae8fc;strokeColor=#6c8ebf;" parent="1" vertex="1">
          <mxGeometry x="-500" y="-340" width="310" height="99" as="geometry" />
        </mxCell>
        <mxCell id="6nB1oudf6yaDWqm7sy5U-5" value="" style="endArrow=classic;startArrow=classic;html=1;rounded=0;exitX=0.5;exitY=1;exitDx=0;exitDy=0;" parent="1" source="6nB1oudf6yaDWqm7sy5U-4" edge="1">
          <mxGeometry width="100" height="100" relative="1" as="geometry">
            <mxPoint x="-370" y="-120" as="sourcePoint" />
            <mxPoint x="-160" y="-150" as="targetPoint" />
            <Array as="points">
              <mxPoint x="-345" y="-190" />
              <mxPoint x="-160" y="-190" />
            </Array>
          </mxGeometry>
        </mxCell>
        <mxCell id="6nB1oudf6yaDWqm7sy5U-6" value="&lt;div&gt;𝑓 - &lt;b&gt;регулярна&lt;/b&gt; на открытом множестве 𝐺 ⊂ C, если&lt;/div&gt;&lt;br&gt;1. 𝑓 дифференцируема в любой точке из 𝐺&lt;br&gt;2. 𝑓 ′ непрерывна в любой точке из 𝐺&lt;br&gt;Обозначение — &lt;b&gt;𝑓 ∈ 𝐶 1 (𝐺)&lt;/b&gt;." style="rounded=0;whiteSpace=wrap;html=1;fillColor=#fff2cc;strokeColor=#d6b656;align=center;" parent="1" vertex="1">
          <mxGeometry x="-320" y="30" width="310" height="100" as="geometry" />
        </mxCell>
        <mxCell id="6nB1oudf6yaDWqm7sy5U-7" value="Функция 𝑢 : R2 → R называется &lt;b&gt;гармонической&lt;/b&gt; на&lt;br&gt;&lt;div&gt;𝐺, если&amp;nbsp;&lt;/div&gt;&lt;div&gt;1. 𝑢 ∈ 𝐶 2 (𝐺)&lt;/div&gt;&lt;div&gt;2. 𝑢′′𝑥𝑥 + 𝑢′′𝑦𝑦 ≡ 0 на 𝐺&lt;/div&gt;&lt;div&gt;&lt;br&gt;&lt;/div&gt;&lt;div&gt;Гармонические функции 𝑢(𝑥, 𝑦), 𝑣(𝑥, 𝑦), удовлетворяющие условиям Коши-&lt;br&gt;Римана называются &lt;b&gt;сопряженными гармоническими&lt;/b&gt; (порядок 𝑢, 𝑣 в определении важен)&lt;br&gt;&lt;/div&gt;" style="rounded=0;whiteSpace=wrap;html=1;fillColor=#fff2cc;strokeColor=#d6b656;" parent="1" vertex="1">
          <mxGeometry x="-315" y="200" width="335" height="150" as="geometry" />
        </mxCell>
        <mxCell id="6nB1oudf6yaDWqm7sy5U-18" value="" style="group" parent="1" vertex="1" connectable="0">
          <mxGeometry x="-885" y="10" width="385" height="320" as="geometry" />
        </mxCell>
        <mxCell id="6nB1oudf6yaDWqm7sy5U-8" value="Пусть функция 𝑓 (𝑧) = 𝑓 (𝑥 + 𝑖𝑦) = 𝑢(𝑥, 𝑦) + 𝑖𝑣(𝑥, 𝑦) регулярна на области&lt;br&gt;𝐺 ⊂ C. Тогда функции 𝑢, 𝑣 — гармонические на 𝐺." style="rounded=1;whiteSpace=wrap;html=1;fillColor=#dae8fc;strokeColor=#6c8ebf;" parent="6nB1oudf6yaDWqm7sy5U-18" vertex="1">
          <mxGeometry x="52.5" width="280" height="125.21739130434783" as="geometry" />
        </mxCell>
        <mxCell id="6nB1oudf6yaDWqm7sy5U-14" value="Пусть выполнены следующие условия:&lt;br&gt;1. 𝐺 ⊂ R2 — односвязная область&lt;br&gt;2. Функция 𝑢 — гармоническая на 𝐺 ⊂ R2&lt;br&gt;Тогда существует гармоническая на 𝐺 функция 𝑣 такая, что на 𝐺 регулярна функция 𝑓 (𝑧) =&lt;br&gt;𝑓 (𝑥 + 𝑖𝑦) := 𝑢(𝑥, 𝑦) + 𝑖𝑣(𝑥, 𝑦)" style="rounded=1;whiteSpace=wrap;html=1;fillColor=#dae8fc;strokeColor=#6c8ebf;" parent="6nB1oudf6yaDWqm7sy5U-18" vertex="1">
          <mxGeometry y="180.8695652173913" width="385" height="139.1304347826087" as="geometry" />
        </mxCell>
        <mxCell id="6nB1oudf6yaDWqm7sy5U-20" value="&lt;div&gt;Теорема&lt;i&gt;&lt;b&gt; об обратной функции&lt;/b&gt;&lt;/i&gt;. Пусть 𝑤 = 𝑓 (𝑧) — регулярна в области 𝐺 ⊂ C, 𝑧0 ∈ 𝐺,&amp;nbsp;&lt;/div&gt;&lt;div&gt;𝑤0 = 𝑓 (𝑧0), 𝑓′(𝑧0 ) != 0.&amp;nbsp;&lt;/div&gt;&lt;div&gt;&lt;br&gt;&lt;/div&gt;&lt;div&gt;Тогда ∃𝛿 &amp;gt; 0, 𝜀 &amp;gt; 0 :&lt;/div&gt;&lt;div align=&quot;left&quot;&gt;&lt;span style=&quot;white-space: pre;&quot;&gt;&#x9;&lt;/span&gt;&lt;span style=&quot;white-space: pre;&quot;&gt;&#x9;&lt;/span&gt;&lt;span style=&quot;white-space: pre;&quot;&gt;&#x9;&lt;/span&gt;1. 𝑓 ′ (𝑧) ̸= 0 в 𝐵𝛿 (𝑧0 )&lt;br&gt;&lt;/div&gt;&lt;div align=&quot;left&quot;&gt;&lt;span style=&quot;white-space: pre;&quot;&gt;&#x9;&lt;/span&gt;&lt;span style=&quot;white-space: pre;&quot;&gt;&#x9;&lt;/span&gt;&lt;span style=&quot;white-space: pre;&quot;&gt;&#x9;&lt;/span&gt;2. ∀𝑤˜ ∈ 𝐵𝜀 (𝑤0 ) ∃! решение уравнения 𝑓 (𝑧) = 𝑤˜ в 𝐵𝛿 (𝑧0 ).&amp;nbsp;&lt;/div&gt;&lt;div align=&quot;left&quot;&gt;&lt;span style=&quot;white-space: pre;&quot;&gt;&#x9;&lt;/span&gt;&lt;span style=&quot;white-space: pre;&quot;&gt;&#x9;&lt;/span&gt;&lt;span style=&quot;white-space: pre;&quot;&gt;&#x9;&lt;/span&gt;&lt;span style=&quot;white-space: pre;&quot;&gt;&#x9;&lt;/span&gt;Тем самым определена функция&lt;/div&gt;&lt;div align=&quot;left&quot;&gt;&lt;span style=&quot;white-space: pre;&quot;&gt;&#x9;&lt;/span&gt;&lt;span style=&quot;white-space: pre;&quot;&gt;&#x9;&lt;/span&gt;&lt;span style=&quot;white-space: pre;&quot;&gt;&#x9;&lt;/span&gt;&lt;span style=&quot;white-space: pre;&quot;&gt;&#x9;&lt;/span&gt;𝑧 = 𝑔(𝑤) : 𝐵𝜀 (𝑤0 ) → 𝐵𝛿 (𝑧0 ) обратная к 𝑓 (𝑧), такая что 𝑓 (𝑔(𝑤)) ≡ 𝑤&lt;br&gt;&lt;span style=&quot;white-space: pre;&quot;&gt;&#x9;&lt;/span&gt;&lt;span style=&quot;white-space: pre;&quot;&gt;&#x9;&lt;/span&gt;&lt;span style=&quot;white-space: pre;&quot;&gt;&#x9;&lt;/span&gt;3. 𝑔(𝑤) регулярна в 𝐵𝜀 (𝑤0 ) и 𝑔′(𝑤) = 1 / 𝑓′(𝑔(𝑤))&lt;/div&gt;" style="rounded=1;whiteSpace=wrap;html=1;fillColor=#dae8fc;strokeColor=#6c8ebf;" parent="1" vertex="1">
          <mxGeometry x="340" y="-70" width="560" height="150" as="geometry" />
        </mxCell>
        <mxCell id="6nB1oudf6yaDWqm7sy5U-22" value="&lt;i&gt;&lt;b&gt;Кривой&lt;/b&gt;&lt;/i&gt;&lt;b&gt; 𝛾&lt;/b&gt; на комплексной плоскости называется непрерывное отображение&lt;br&gt;&lt;div&gt;отрезка [𝑎, 𝑏] ⊂ R в C.&lt;/div&gt;&lt;div align=&quot;left&quot;&gt;&lt;b&gt;Параметризацией кривой&lt;/b&gt;&lt;b&gt; 𝛾&lt;/b&gt; называется соответствующая функция 𝜎(𝑡) =&lt;/div&gt;𝜉(𝑡) + 𝑖𝜂(𝑡), 𝑡 ∈ [𝑎, 𝑏].&lt;br&gt;&lt;div align=&quot;left&quot;&gt;&lt;b&gt;Носителем кривой&lt;/b&gt; 𝛾 называется множество 𝑀 (𝛾) := 𝜎([𝑎, 𝑏]).&lt;/div&gt;&lt;div align=&quot;left&quot;&gt;&lt;br&gt;&lt;/div&gt;&lt;div align=&quot;left&quot;&gt;Кривая называется:&lt;/div&gt;&lt;div align=&quot;left&quot;&gt;&lt;b&gt;Простой,&lt;/b&gt; если параметризация 𝜎 инъективна&lt;br&gt;&lt;b&gt;Замкнутой,&lt;/b&gt; или контуром, если 𝜎(𝑎) = 𝜎(𝑏)&lt;br&gt;&lt;b&gt;Контур простой&lt;/b&gt;, если сужение 𝜎|[𝑎,𝑏) инъективно&lt;br&gt;&lt;/div&gt;" style="rounded=0;whiteSpace=wrap;html=1;fillColor=#fff2cc;strokeColor=#d6b656;" parent="1" vertex="1">
          <mxGeometry x="-260" y="-760" width="450" height="180" as="geometry" />
        </mxCell>
        <mxCell id="u71bNxXUsY2nvEHPYwLb-1" value="Пусть 𝛾 — кусочно-гладкая кривая, 𝑧 = 𝜎(𝑡), 𝑡 ∈ [𝑎, 𝑏], — её параметризация,&lt;br&gt;и функция 𝑓 такова, что композиция 𝑓 ∘ 𝜎 непрерывна на [𝑎, 𝑏].&lt;br&gt;Интегралом первого рода функции 𝑓 по кривой 𝛾 называется следующая величина:&lt;br&gt;&lt;div&gt;&lt;br&gt;&lt;/div&gt;&lt;div&gt;&amp;nbsp;\(\int_{𝛾}^{}𝑓 (𝑧)\,|𝑑𝑧|\) =&amp;nbsp; \(\int_{a}^{b} 𝑓(𝜎(𝑡)) |𝜎 ′ (𝑡)| \,𝑑𝑡\)&lt;br&gt;&lt;br&gt;Интегралом второго рода функции 𝑓 по кривой 𝛾 называется следующая величина:&amp;nbsp;&lt;/div&gt;&lt;div&gt;\(\int_{𝛾}^{}𝑓 (𝑧)\,𝑑𝑧\) =&amp;nbsp; \(\int_{a}^{b} 𝑓(𝜎(𝑡)) 𝜎 ′ (𝑡) \,𝑑𝑡\)&lt;/div&gt;" style="rounded=0;whiteSpace=wrap;html=1;fillColor=#fff2cc;strokeColor=#d6b656;" parent="1" vertex="1">
          <mxGeometry x="-380" y="510" width="510" height="160" as="geometry" />
        </mxCell>
        <mxCell id="u71bNxXUsY2nvEHPYwLb-5" value="Если 𝑓 (𝑧) = 𝑓 (𝑥+𝑖𝑦) = 𝑢(𝑥, 𝑦)+𝑖𝑣(𝑥, 𝑦), то, как нетрудно убедиться, выполнены&lt;br&gt;следующие равенства:&lt;br&gt;&lt;div&gt;\(\int_{𝛾}^{}𝑓 (𝑧)\,|𝑑𝑧|\) =&amp;nbsp; \(\int_{𝛾}^{} 𝑢(𝑥, 𝑦)\,𝑑s\) + 𝑖 \(\int_{𝛾}^{}&amp;nbsp;𝑣(𝑥, 𝑦)\,𝑑s\) &lt;br&gt;&lt;/div&gt;&lt;div&gt;\(\int_{𝛾}^{}𝑓 (𝑧)\,|𝑑𝑧|\) =&amp;nbsp; \(\int_{𝛾}^{} 𝑢(𝑥, 𝑦)\,𝑑x\&amp;nbsp; - 𝑣(𝑥, 𝑦)\,𝑑y\) + 𝑖 \(\int_{𝛾}^{}&amp;nbsp;𝑣(𝑥, 𝑦)\,𝑑s\ + 𝑢(𝑥, 𝑦)\,𝑑x\) &lt;/div&gt;" style="rounded=1;whiteSpace=wrap;html=1;fillColor=#dae8fc;strokeColor=#6c8ebf;" parent="1" vertex="1">
          <mxGeometry x="-1120" y="535" width="480" height="110" as="geometry" />
        </mxCell>
        <mxCell id="u71bNxXUsY2nvEHPYwLb-8" value="Теорема. Пусть для кривой 𝛾 и функций 𝑓, 𝑔 выполнены условия в определении интеграла&lt;br&gt;&lt;div&gt;первого и второго рода. Тогда выполнены следующие свойства:&lt;/div&gt;&lt;div&gt;&lt;br&gt;&lt;/div&gt;1. (Линейность) Если 𝛼, 𝛽 ∈ C, то:&lt;br&gt;&lt;div&gt;&lt;br&gt;&lt;/div&gt;&lt;div&gt;&lt;div&gt;\(\int_{𝛾}^{}(𝛼𝑓 + 𝛽𝑔)\,𝑑𝑧\) = 𝛼\(\int_{𝛾}^{}𝑓 (𝑧)\,𝑑𝑧\) + 𝛽\(\int_{𝛾}^{}g (𝑧)\,𝑑𝑧\)&lt;/div&gt;&lt;/div&gt;&lt;div&gt;&lt;br&gt;&lt;/div&gt;&lt;div&gt;2. (Аддитивность) Если \(𝛾 = 𝛾_1 + 𝛾_2 \), то:&lt;/div&gt;&lt;div&gt;\(\int_{𝛾}^{}(f)\,𝑑𝑧\) = \(\int_{𝛾_1}^{}𝑓 (𝑧)\,𝑑𝑧\) + \(\int_{𝛾_2}^{}f (𝑧)\,𝑑𝑧\)&lt;/div&gt;&lt;div&gt;&lt;br&gt;&lt;/div&gt;3. (Независимость от параметризации) Если 𝜙 : [𝛼, 𝛽] → [𝑎, 𝑏] — кусочно-гладкая строго воз-&lt;br&gt;растающая функция, то:&lt;br&gt;\(\int_{𝛾}^{}f\,𝑑𝑧\) = \(\int_{a}^{b}𝑓 (𝜎(𝑡))𝜎 (𝑡)\,𝑑t\) = \(\int_{𝛼}^{𝛽}𝑓 (𝜎(𝜙(𝑢)))𝜎 ′ (𝜙(𝑢))𝜙′ (𝑢)\,𝑑u\)&lt;br&gt;&lt;br&gt;&lt;div&gt;4. Аналогичные пунктам (1), (2), (3) свойства выполнены для интегралов первого рода&lt;/div&gt;&lt;div&gt;&lt;br&gt;&lt;/div&gt;5. Если 𝛾 −1 — кривая с параметризацией 𝑧 = 𝜎(−𝑡), 𝑡 ∈ [−𝑏, −𝑎], то:&lt;br&gt;&lt;div&gt;\(\int_{𝛾^{-1}}^{}f\,|𝑑𝑧|\) = \(\int_{𝛾}^{}𝑓\,|𝑑𝑧|\)&lt;/div&gt;&lt;div&gt;\(\int_{𝛾^{-1}}^{}f\,𝑑𝑧\) = -\(\int_{𝛾}^{}𝑓\,𝑑𝑧\)&lt;/div&gt;&lt;div&gt;&lt;br&gt;&lt;/div&gt;6. Если 𝑀 := max |𝑓 (𝑧)|,𝑧∈𝑀;&amp;nbsp; |𝛾| — длина кривой 𝛾, то:&lt;br&gt;&amp;nbsp;|\(\int_{𝛾}^{}(f)\,𝑑𝑧\)| \(\leqslant\) \(\int_{𝛾}^{}|𝑓|\,|𝑑𝑧|\)" style="rounded=1;whiteSpace=wrap;html=1;fillColor=#dae8fc;strokeColor=#6c8ebf;" parent="1" vertex="1">
          <mxGeometry x="-1150" y="690" width="570" height="350" as="geometry" />
        </mxCell>
        <mxCell id="u71bNxXUsY2nvEHPYwLb-10" value="&lt;div&gt;Утверждение. Пусть выполнены следующие условия:&lt;/div&gt;1. 𝛾 — кусочно-гладкая кривая&lt;br&gt;&lt;div&gt;2. Функции 𝑓0 , 𝑓1 , . . . непрерывны на 𝑀 (𝛾)&lt;/div&gt;&lt;div&gt;3. \(\sum_{k=0}^{\infty}𝑓_𝑘 (𝑧)\) сходится равномерно на 𝑀 (𝛾)&lt;/div&gt;&lt;br&gt;&lt;div&gt;Тогда верно следующее равенство:&lt;/div&gt;&lt;div&gt;&lt;br&gt;&lt;/div&gt;&lt;div&gt;&amp;nbsp;\(\int_{𝛾}^{}(\sum_{n=0}^{\infty}𝑓_n)\,𝑑𝑧\) = \(\sum_{n=0}^{\infty}\int_{𝛾}^{}𝑓_n\,𝑑𝑧\)&lt;/div&gt;" style="rounded=1;whiteSpace=wrap;html=1;fillColor=#dae8fc;strokeColor=#6c8ebf;" parent="1" vertex="1">
          <mxGeometry x="-1040" y="1070" width="290" height="140" as="geometry" />
        </mxCell>
        <mxCell id="u71bNxXUsY2nvEHPYwLb-12" value="&lt;div align=&quot;justify&quot;&gt;&lt;span style=&quot;white-space: pre;&quot;&gt;&#x9;&lt;/span&gt;Теорема &lt;i&gt;&lt;b&gt;(интегральная теорема Коши для односвязной области).&lt;/b&gt;&lt;/i&gt;&amp;nbsp;&lt;/div&gt;&lt;blockquote&gt;&lt;div align=&quot;justify&quot;&gt;Пусть выполнены следующие условия:&lt;/div&gt;&lt;blockquote&gt;&lt;div align=&quot;justify&quot;&gt;&lt;div&gt;1. 𝐺 ⊂ C — односвязная область&lt;br&gt;2. 𝑓 ∈ 𝐶 1 (𝐺)&lt;br&gt;3. 𝛾 — кусочно-гладкая замкнутая кривая такая, что 𝑀 (𝛾) ⊂ 𝐺&lt;br&gt;&lt;/div&gt;&lt;/div&gt;&lt;/blockquote&gt;&lt;div align=&quot;justify&quot;&gt;Тогда верно следующее равенство:&amp;nbsp;&lt;/div&gt;&lt;div align=&quot;center&quot;&gt;\(\int_{𝛾}^{}𝑓\,𝑑𝑧\) = 0&lt;/div&gt;&lt;/blockquote&gt;" style="rounded=1;whiteSpace=wrap;html=1;fillColor=#dae8fc;strokeColor=#6c8ebf;" parent="1" vertex="1">
          <mxGeometry x="800" y="500" width="450" height="180" as="geometry" />
        </mxCell>
        <mxCell id="u71bNxXUsY2nvEHPYwLb-14" value="&lt;div&gt;Теорема&amp;nbsp; (без доказательства,&lt;i&gt;&lt;b&gt; формула Грина для области с простой границей).&lt;/b&gt;&lt;/i&gt;&amp;nbsp;&lt;/div&gt;&lt;div align=&quot;justify&quot;&gt;&lt;span style=&quot;&quot;&gt;&lt;span style=&quot;&quot;&gt;&amp;nbsp;&amp;nbsp;&amp;nbsp;&amp;nbsp;&lt;/span&gt;&lt;/span&gt;Пусть выполнены следующие условия:&lt;/div&gt;&lt;blockquote&gt;&lt;div align=&quot;justify&quot;&gt;1. 𝐺 ⊂ R2 — ограниченная область с простой границей&lt;br&gt;2. Граничные кривые положительно ориентированы относительно 𝐺&lt;br&gt;3. 𝑃, 𝑄 ∈ \(\overline{𝐶(𝐺)}\) и \(\frac{𝜕𝑃}{𝜕𝑦}, \frac{𝜕𝑃}{𝜕𝑥}\) можно непрерывным образом продолжить на 𝜕𝐺&lt;br&gt;&lt;/div&gt;&lt;/blockquote&gt;&lt;div&gt;Тогда верно следующее равенство:&lt;/div&gt;&lt;div&gt;\(\iint_G&amp;nbsp;\frac{𝜕𝑃}{𝜕𝑦} - \frac{𝜕𝑃}{𝜕𝑥} \,dxdy\ \) = \(\int_{𝜕𝐺} P\,dx\ + Q\,dy\)&lt;br&gt;&lt;/div&gt;" style="rounded=1;whiteSpace=wrap;html=1;fillColor=#dae8fc;strokeColor=#6c8ebf;" parent="1" vertex="1">
          <mxGeometry x="780" y="750" width="520" height="180" as="geometry" />
        </mxCell>
        <mxCell id="u71bNxXUsY2nvEHPYwLb-15" value="&lt;div&gt;Теорема (&lt;b&gt;&lt;i&gt;интегральная теорема Коши для ограниченной области с простой границей&lt;/i&gt;&lt;/b&gt;).&amp;nbsp;&lt;/div&gt;&lt;blockquote&gt;&lt;div align=&quot;justify&quot;&gt;Пусть выполнены следующие условия:&lt;/div&gt;&lt;blockquote&gt;&lt;div align=&quot;justify&quot;&gt;1. 𝐺 ⊂ C — ограниченная область с простой границей&lt;br&gt;2. Граничные кривые положительно ориентированы относительно 𝐺&lt;br&gt;3. 𝑓 ∈ 𝐶 1 (𝐺)&lt;br&gt;&lt;/div&gt;&lt;/blockquote&gt;&lt;/blockquote&gt;&lt;blockquote&gt;&lt;div align=&quot;justify&quot;&gt;Тогда верно следующее равенство:&lt;/div&gt;&lt;div align=&quot;justify&quot;&gt;&lt;span style=&quot;white-space: pre;&quot;&gt;&#x9;&lt;/span&gt;&lt;span style=&quot;white-space: pre;&quot;&gt;&#x9;&lt;/span&gt;&lt;span style=&quot;white-space: pre;&quot;&gt;&#x9;&lt;/span&gt;\(\int_{𝜕𝐺} f\,dz\)= 0;&amp;nbsp; \(\sum_{k=0}^{\infty}\int_{𝛾}^{}𝑓_k\,𝑑𝑧\) &lt;br&gt;&lt;/div&gt;&lt;/blockquote&gt;" style="rounded=1;whiteSpace=wrap;html=1;fillColor=#dae8fc;strokeColor=#6c8ebf;" parent="1" vertex="1">
          <mxGeometry x="760" y="1010" width="570" height="170" as="geometry" />
        </mxCell>
        <mxCell id="u71bNxXUsY2nvEHPYwLb-16" value="&lt;div align=&quot;justify&quot;&gt;Теорема&lt;i&gt;&lt;b&gt; (интегральная формула Коши).&lt;/b&gt;&lt;/i&gt;&amp;nbsp;&lt;/div&gt;&lt;div align=&quot;justify&quot;&gt;&lt;span style=&quot;&quot;&gt;&lt;span style=&quot;&quot;&gt;&amp;nbsp;&amp;nbsp;&amp;nbsp;&amp;nbsp;&lt;span style=&quot;white-space: pre;&quot;&gt;&#x9;&lt;/span&gt;&lt;/span&gt;&lt;/span&gt;Пусть выполнены следующие условия:&lt;/div&gt;&lt;blockquote&gt;&lt;div align=&quot;justify&quot;&gt;1. 𝐺 ⊂ C — ограниченная область с простой границей&lt;br&gt;2. Граничные кривые положительно ориентированы относительно 𝐺&lt;br&gt;3. 𝑓 ∈ 𝐶 1 (𝐺)&lt;br&gt;&lt;/div&gt;&lt;div align=&quot;justify&quot;&gt;4. 𝑧0 ∈ 𝐺&lt;br&gt;&lt;/div&gt;&lt;/blockquote&gt;&lt;div align=&quot;justify&quot;&gt;&lt;span style=&quot;&quot;&gt;&lt;span style=&quot;&quot;&gt;&amp;nbsp;&amp;nbsp;&amp;nbsp;&amp;nbsp;&lt;/span&gt;&lt;/span&gt;&lt;span style=&quot;white-space: pre;&quot;&gt;&#x9;&lt;/span&gt;Тогда верно следующее равенство:&lt;/div&gt;&lt;div align=&quot;justify&quot;&gt;&lt;br&gt;&lt;/div&gt;&lt;div align=&quot;center&quot;&gt;&amp;nbsp;&lt;span style=&quot;white-space: pre;&quot;&gt;&#x9;&lt;/span&gt;&lt;span style=&quot;white-space: pre;&quot;&gt;&#x9;&lt;/span&gt;\(f(z_0)\) = \(\frac{1}{2\pi i}\) \(\int_{𝜕𝐺} \frac{f(z)}{z-z_0}\,dz\)&lt;/div&gt;" style="rounded=1;whiteSpace=wrap;html=1;fillColor=#dae8fc;strokeColor=#6c8ebf;" parent="1" vertex="1">
          <mxGeometry x="820" y="1240" width="490" height="180" as="geometry" />
        </mxCell>
        <mxCell id="u71bNxXUsY2nvEHPYwLb-17" value="Теорема (&lt;i&gt;&lt;b&gt;Абеля&lt;/b&gt;&lt;/i&gt;). Пусть ряд 3 сходится для некоторого \(\widetilde{z} \neq&amp;nbsp; 0\), тогда&lt;br&gt;&lt;blockquote&gt;&amp;nbsp; &lt;br&gt;&lt;div align=&quot;justify&quot;&gt;1. ∀𝑧 : \( |𝑧|&amp;lt;|\widetilde{z}| \longrightarrow\) ряд \(\sum_{n=0}^{\infty}c_n z^n\) сходится абсоютно&lt;br&gt;2. ∀𝑟 :&amp;nbsp; \(0 &amp;lt; r &amp;lt; |\widetilde{z}| \longrightarrow\) ряд \(\sum_{n=0}^{\infty}c_n z^n\) сходится равномерно по 𝑧 в круге \(\overline{B_r}(0)\) =: 𝐾&lt;/div&gt;&lt;/blockquote&gt;" style="rounded=1;whiteSpace=wrap;html=1;fillColor=#dae8fc;strokeColor=#6c8ebf;" parent="1" vertex="1">
          <mxGeometry x="-260" y="950" width="460" height="110" as="geometry" />
        </mxCell>
        <mxCell id="u71bNxXUsY2nvEHPYwLb-18" value="&lt;blockquote&gt;&lt;div align=&quot;justify&quot;&gt;Теорема&amp;nbsp; &lt;i&gt;&lt;b&gt;(о дифференцируемости суммы степенного ряда).&lt;/b&gt;&lt;/i&gt; &lt;span style=&quot;white-space: pre;&quot;&gt;&#x9;&lt;/span&gt;&lt;br&gt;&lt;/div&gt;&lt;div align=&quot;justify&quot;&gt;Пусть ряд 3 сходится в круге 𝐾 = {𝑧 : |𝑧|&amp;lt; 𝑅} для какого-то 𝑅 &amp;gt; 0 к сумме 𝑆(𝑧),&lt;/div&gt;&lt;div align=&quot;justify&quot;&gt;тогдa:&lt;/div&gt;&lt;blockquote&gt;&lt;div align=&quot;justify&quot;&gt;1. ряд \(\sum_{n=0}^{\infty}c_n z^{n-1}\) сходится в круге 𝐾&lt;/div&gt;&lt;div align=&quot;justify&quot;&gt;2. \( \widehat{S}(𝑧)\) := \(\sum_{n=0}^{\infty}c_n z^{n-1}\) = \(S&#39;(z)\)&lt;br&gt;&lt;/div&gt;&lt;/blockquote&gt;&lt;/blockquote&gt;" style="rounded=1;whiteSpace=wrap;html=1;fillColor=#dae8fc;strokeColor=#6c8ebf;" parent="1" vertex="1">
          <mxGeometry x="-270" y="1080" width="490" height="150" as="geometry" />
        </mxCell>
        <mxCell id="u71bNxXUsY2nvEHPYwLb-20" value="&lt;i&gt;&lt;b&gt;(Интеграл Коши).&lt;/b&gt;&lt;/i&gt; Пусть 𝛾 — кусочно-гладкая кривая, 𝑧 = 𝜎(𝑡), 𝑡 ∈ [𝑎, 𝑏], — её&lt;br&gt;&lt;div&gt;параметризация, и функция 𝑓 такова, что композиция 𝑓 ∘ 𝜎 непрерывна на [𝑎, 𝑏]. Интегралом Коши называется функция, определенная вне множества 𝑀 (𝛾), следующего вида:&lt;/div&gt;&lt;div&gt;&lt;br&gt;&lt;/div&gt;&lt;div&gt;\(F(z) := \frac{1}{2\pi i}\) \(\int_{𝜕𝐺} \frac{f(w)}{w-z}\,dw\), 𝑧 \(\notin\) 𝑀 (𝛾)&lt;br&gt;&lt;/div&gt;" style="rounded=0;whiteSpace=wrap;html=1;fillColor=#fff2cc;strokeColor=#d6b656;" parent="1" vertex="1">
          <mxGeometry x="-360" y="1350" width="460" height="100" as="geometry" />
        </mxCell>
        <mxCell id="u71bNxXUsY2nvEHPYwLb-21" value="Теорема 7.2. Пусть 𝐹 — интеграл Коши для кривой 𝛾 и функции 𝑓 , числа 𝑧0 ∈ C, 𝑅 &amp;gt; 0 таковы,&lt;br&gt;что круг 𝐾 := {𝑧 ∈ C : |𝑧 − 𝑧0 |&amp;lt; 𝑅} не пересекается с 𝑀 (𝛾). Тогда на 𝐾 интеграл Коши 𝐹 может&lt;br&gt;быть представлен степенным рядом с центром в 𝑧0 ." style="rounded=1;whiteSpace=wrap;html=1;fillColor=#dae8fc;strokeColor=#6c8ebf;" parent="1" vertex="1">
          <mxGeometry x="-430" y="1560" width="350" height="80" as="geometry" />
        </mxCell>
        <mxCell id="u71bNxXUsY2nvEHPYwLb-22" value="&lt;blockquote&gt;Теорема 7.3 (&lt;b&gt;&lt;i&gt;о беск. дифференцируемости рег. функции&lt;/i&gt;&lt;/b&gt;). Пусть 𝐺 — огр. область с простой границей 𝜕𝐺 =&amp;nbsp; \(\bigcup_{i=1}^{m} 𝛾_i \), где ∀𝑖&amp;nbsp; \(𝛾_𝑖\) - контур. &lt;br&gt;Также пусть 𝑓(𝑧) регулярна в 𝐺. Тогда ∀𝑧 ∈ 𝐺 существует&lt;/blockquote&gt;&lt;div&gt;\(f^{(n)}(z)\) = \( \frac{n!}{2\pi i} \int_{𝜕𝐺} \frac{f(w)}{(w-z)^{n+1}}\,dw\)&lt;/div&gt;&lt;div&gt;&lt;br&gt;&lt;/div&gt;" style="rounded=1;whiteSpace=wrap;html=1;fillColor=#dae8fc;strokeColor=#6c8ebf;" parent="1" vertex="1">
          <mxGeometry x="-510" y="1690" width="500" height="100" as="geometry" />
        </mxCell>
        <mxCell id="u71bNxXUsY2nvEHPYwLb-23" value="&lt;div align=&quot;justify&quot;&gt;&amp;nbsp;Утверждение&amp;nbsp; (&lt;b&gt;&lt;i&gt;формула Ньютона-Лейбница&lt;/i&gt;&lt;/b&gt;). Пусть выполнены следующие условия:&lt;br&gt;&lt;blockquote&gt;&lt;div align=&quot;justify&quot;&gt;1. Функция 𝑓 непрерывна и имеет первообразную 𝐹 на области 𝐺 ⊂ C&lt;br&gt;&lt;/div&gt;&lt;div align=&quot;justify&quot;&gt;2. 𝛾 — кусочно гладкая-кривая, соединяющая точки 𝑧1 , 𝑧2 ∈ 𝐺, такая, что 𝑀 (𝛾)⊂ 𝐺&lt;/div&gt;&lt;/blockquote&gt;&lt;/div&gt;&lt;div align=&quot;justify&quot;&gt;&lt;span style=&quot;white-space: pre;&quot;&gt;&#x9;&lt;/span&gt;Тогда верно следующее равенство:&lt;/div&gt;&lt;div align=&quot;justify&quot;&gt;&lt;span style=&quot;white-space: pre;&quot;&gt;&#x9;&lt;/span&gt;&lt;span style=&quot;white-space: pre;&quot;&gt;&#x9;&lt;span style=&quot;white-space: pre;&quot;&gt;&#x9;&lt;/span&gt;&lt;/span&gt;\(\int_{𝛾}^{}f\,𝑑𝑧\) = \(F(z_2)\) -&amp;nbsp;\(F(z_1)\) &lt;/div&gt;" style="rounded=1;whiteSpace=wrap;html=1;fillColor=#dae8fc;strokeColor=#6c8ebf;" parent="1" vertex="1">
          <mxGeometry x="-520" y="1860" width="500" height="150" as="geometry" />
        </mxCell>
        <mxCell id="u71bNxXUsY2nvEHPYwLb-25" value="&lt;blockquote&gt;&lt;div align=&quot;justify&quot;&gt;Утверждение. Пусть выполнены следующие условия:&lt;br&gt;&lt;blockquote&gt;1. Функция 𝑓 непрерывна на области 𝐺 ⊂ C&lt;br&gt;2. Для любой замкнутой кусочно-гладкой кривой 𝛾 такой, что 𝑀 (𝛾) ⊂ 𝐺, выполнено равенство&lt;br&gt;&lt;span style=&quot;&quot;&gt;&lt;/span&gt;\(\int_{𝛾}^{}f\,𝑑𝑧\ = 0&lt;br&gt;&lt;/blockquote&gt;Тогда 𝑓 имеет первообразную на 𝐺.&lt;/div&gt;&lt;/blockquote&gt;" style="rounded=1;whiteSpace=wrap;html=1;fillColor=#dae8fc;strokeColor=#6c8ebf;" parent="1" vertex="1">
          <mxGeometry x="-510" y="2060" width="480" height="140" as="geometry" />
        </mxCell>
        <mxCell id="u71bNxXUsY2nvEHPYwLb-26" value="Теорема 8.8 (Мореры). Функция 𝑓, непрерывная на области&lt;br&gt;∫︀ 𝐺 ⊂ C, для любой замкнутой&lt;br&gt;кусочно-гладкой кривой 𝛾 такой, что 𝑀 (𝛾) ⊂ 𝐺, выполнено 𝛾 𝑓 𝑑𝑧 = 0. Тогда 𝑓 (𝑧) регулярна&lt;br&gt;в 𝐺." style="rounded=1;whiteSpace=wrap;html=1;" parent="1" vertex="1">
          <mxGeometry x="-570" y="2260" width="260" height="110" as="geometry" />
        </mxCell>
      </root>
    </mxGraphModel>
  </diagram>
</mxfile>
